<?xml version="1.0" encoding="iso-8859-1"?>
<!-- Generator: Adobe Illustrator 16.0.0, SVG Export Plug-In . SVG Version: 6.00 Build 0)  -->
<!DOCTYPE svg PUBLIC "-//W3C//DTD SVG 1.1//EN" "http://www.w3.org/Graphics/SVG/1.1/DTD/svg11.dtd">
<svg xmlns="http://www.w3.org/2000/svg" xmlns:xlink="http://www.w3.org/1999/xlink" version="1.1" id="Capa_1" x="0px" y="0px" width="512px" height="512px" viewBox="0 0 345.366 345.365" style="enable-background:new 0 0 345.366 345.365;" xml:space="preserve">
<g>
	<g>
		<path d="M70.202,154.239c5.843,0,11.481-0.792,16.91-2.147v20.435c-21.461,3.847-38.383,20.792-42.187,42.265    c-0.292-0.012-0.568-0.09-0.856-0.09H19.474c-10.19,0-18.447,8.257-18.447,18.446v36.894c0,10.19,8.257,18.447,18.447,18.447    h24.596c0.288,0,0.564-0.078,0.856-0.09c4.335,24.475,25.712,43.132,51.41,43.132h135.276c28.817,0,52.266-23.448,52.266-52.266    v-3.351l45.739,45.738c1.765,1.766,4.119,2.702,6.526,2.702c1.184,0,2.385-0.228,3.531-0.702c3.447-1.424,5.692-4.786,5.692-8.521    V192.153c0-3.735-2.245-7.098-5.692-8.521c-3.453-1.436-7.422-0.643-10.058,1.999l-45.739,45.745v-7.453    c0-25.664-18.608-47.023-43.042-51.397v-21.227c6.335,1.889,13.036,2.939,19.984,2.939c38.706,0,70.202-31.495,70.202-70.202    c0-38.707-31.496-70.202-70.202-70.202c-38.707,0-70.202,31.495-70.202,70.202c0,19.948,8.406,37.938,21.809,50.729h-93.831    c13.403-12.79,21.81-30.781,21.81-50.729c0-38.707-31.495-70.202-70.202-70.202C31.496,13.835,0,45.33,0,84.037    C0,122.744,31.496,154.239,70.202,154.239z M326.919,214.425v78.446l-39.224-39.223L326.919,214.425z M209.063,84.037    c0-28.538,23.215-51.755,51.756-51.755c28.54,0,51.755,23.212,51.755,51.755c0,28.544-23.215,51.755-51.755,51.755    C232.278,135.792,209.063,112.574,209.063,84.037z M70.202,32.281c28.538,0,51.755,23.212,51.755,51.755    c0,28.544-23.211,51.755-51.755,51.755c-28.543,0-51.755-23.211-51.755-51.755C18.447,55.493,41.665,32.281,70.202,32.281z     M105.559,153.212h116.83v18.447h-116.83V153.212z M19.474,233.147h24.596v36.894H19.474V233.147z M265.43,223.924v29.719v25.622    c0,18.651-15.168,33.819-33.819,33.819H96.335c-18.651,0-33.819-15.168-33.819-33.819v-9.224v-36.894v-9.224    c0-18.65,15.168-33.818,33.819-33.818h135.276C250.262,190.105,265.43,205.273,265.43,223.924z" fill="#FFFFFF"/>
		<circle cx="70.202" cy="84.037" r="13.835" fill="#FFFFFF"/>
		<path d="M260.819,70.202c7.644,0,13.835,6.194,13.835,13.835s-6.191,13.835-13.835,13.835c-7.645,0-13.835-6.194-13.835-13.835    S253.174,70.202,260.819,70.202z" fill="#FFFFFF"/>
	</g>
</g>
<g>
</g>
<g>
</g>
<g>
</g>
<g>
</g>
<g>
</g>
<g>
</g>
<g>
</g>
<g>
</g>
<g>
</g>
<g>
</g>
<g>
</g>
<g>
</g>
<g>
</g>
<g>
</g>
<g>
</g>
</svg>
